<svg width="255" height="199" viewBox="0 0 255 199" fill="none" xmlns="http://www.w3.org/2000/svg">
<path d="M134.106 101.5L136.106 195.5C154.439 183.667 197.305 155.5 222.105 137.5C246.905 119.5 253.772 86.3333 254.105 72V0C231.272 14.8333 180.206 48 158.606 62C137.006 76 133.272 94.1667 134.106 101.5Z" fill="white"/>
<path d="M134.106 101.5L136.106 195.5C154.439 183.667 197.305 155.5 222.105 137.5C246.905 119.5 253.772 86.3333 254.105 72V0C231.272 14.8333 180.206 48 158.606 62C137.006 76 133.272 94.1667 134.106 101.5Z" fill="white"/>
<path d="M134.106 101.5L136.106 195.5C154.439 183.667 197.305 155.5 222.105 137.5C246.905 119.5 253.772 86.3333 254.105 72V0C231.272 14.8333 180.206 48 158.606 62C137.006 76 133.272 94.1667 134.106 101.5Z" fill="white"/>
<path d="M122.651 101.467L123.146 195.487C104.505 184.144 60.9063 157.125 35.6374 139.79C10.3685 122.454 2.62419 89.4812 1.91062 75.1617L5.8121e-05 3.18708C23.2189 17.4093 75.1477 49.2092 97.1116 62.6311C119.075 76.053 123.29 94.1142 122.651 101.467Z" fill="white"/>
<path d="M122.651 101.467L123.146 195.487C104.505 184.144 60.9063 157.125 35.6374 139.79C10.3685 122.454 2.62419 89.4812 1.91062 75.1617L5.8121e-05 3.18708C23.2189 17.4093 75.1477 49.2092 97.1116 62.6311C119.075 76.053 123.29 94.1142 122.651 101.467Z" fill="white"/>
<path d="M122.651 101.467L123.146 195.487C104.505 184.144 60.9063 157.125 35.6374 139.79C10.3685 122.454 2.62419 89.4812 1.91062 75.1617L5.8121e-05 3.18708C23.2189 17.4093 75.1477 49.2092 97.1116 62.6311C119.075 76.053 123.29 94.1142 122.651 101.467Z" fill="white"/>
</svg>
